HIERARCHY
ROOT Hips
{
	OFFSET 0.000000 0.000000 0.000000
	CHANNELS 6 Xposition Yposition Zposition Zrotation Yrotation Xrotation 
	JOINT LHipJoint
	{
		OFFSET 0.000000 0.000000 0.000000
		CHANNELS 3 Zrotation Yrotation Xrotation
		JOINT LeftUpLeg
		{
			OFFSET 1.363060 -1.794630 0.839290
			CHANNELS 3 Zrotation Yrotation Xrotation
			JOINT LeftLeg
			{
				OFFSET 2.448110 -6.726130 0.000000
				CHANNELS 3 Zrotation Yrotation Xrotation
				JOINT LeftFoot
				{
					OFFSET 2.562200 -7.039590 0.000000
					CHANNELS 3 Zrotation Yrotation Xrotation
					JOINT LeftToeBase
					{
						OFFSET 0.157640 -0.433110 2.322550
						CHANNELS 3 Zrotation Yrotation Xrotation
						End Site
						{
							OFFSET 0.000000 0.000000 0.000000
						}
					}
				}
			}
		}
	}
	JOINT RHipJoint
	{
		OFFSET 0.000000 0.000000 0.000000
		CHANNELS 3 Zrotation Yrotation Xrotation
		JOINT RightUpLeg
		{
			OFFSET -1.305520 -1.794630 0.839290
			CHANNELS 3 Zrotation Yrotation Xrotation
			JOINT RightLeg
			{
				OFFSET -2.542530 -6.985550 0.000000
				CHANNELS 3 Zrotation Yrotation Xrotation
				JOINT RightFoot
				{
					OFFSET -2.568260 -7.056230 0.000000
					CHANNELS 3 Zrotation Yrotation Xrotation
					JOINT RightToeBase
					{
						OFFSET -0.164730 -0.452590 2.363150
						CHANNELS 3 Zrotation Yrotation Xrotation
						End Site
						{
							OFFSET 0.000000 0.000000 0.000000
						}
					}
				}
			}
		}
	}
	JOINT LowerBack
	{
		OFFSET 0.000000 0.000000 0.000000
		CHANNELS 3 Zrotation Yrotation Xrotation
		JOINT Spine
		{
			OFFSET 0.028270 2.035590 -0.193380
			CHANNELS 3 Zrotation Yrotation Xrotation
			JOINT Spine1
			{
				OFFSET 0.056720 2.048850 -0.042750
				CHANNELS 3 Zrotation Yrotation Xrotation
				JOINT Neck
				{
					OFFSET 0.000000 0.000000 0.000000
					CHANNELS 3 Zrotation Yrotation Xrotation
					JOINT Neck1
					{
						OFFSET -0.054170 1.746240 0.172020
						CHANNELS 3 Zrotation Yrotation Xrotation
						JOINT Head
						{
							OFFSET 0.104070 1.761360 -0.123970
							CHANNELS 3 Zrotation Yrotation Xrotation
							End Site
							{
								OFFSET 0.000000 0.000000 0.000000
							}
						}
					}
				}
				JOINT LeftShoulder
				{
					OFFSET 0.000000 0.000000 0.000000
					CHANNELS 3 Zrotation Yrotation Xrotation
					JOINT LeftArm
					{
						OFFSET 3.362410 1.200890 -0.311210
						CHANNELS 3 Zrotation Yrotation Xrotation
						JOINT LeftForeArm
						{
							OFFSET 4.983000 -0.000000 -0.000000
							CHANNELS 3 Zrotation Yrotation Xrotation
							JOINT LeftHand
							{
								OFFSET 3.483560 -0.000000 -0.000000
								CHANNELS 3 Zrotation Yrotation Xrotation
								JOINT LeftFingerBase
								{
									OFFSET 0.000000 0.000000 0.000000
									CHANNELS 3 Zrotation Yrotation Xrotation
									JOINT LeftHandIndex1
									{
										OFFSET 0.715260 -0.000000 -0.000000
										CHANNELS 3 Zrotation Yrotation Xrotation
										End Site
										{
											OFFSET 0.000000 0.000000 0.000000
										}
									}
								}
								JOINT LThumb
								{
									OFFSET 0.000000 0.000000 0.000000
									CHANNELS 3 Zrotation Yrotation Xrotation
									End Site
									{
										OFFSET 0.000000 0.000000 0.000000
									}
								}
							}
						}
					}
				}
				JOINT RightShoulder
				{
					OFFSET 0.000000 0.000000 0.000000
					CHANNELS 3 Zrotation Yrotation Xrotation
					JOINT RightArm
					{
						OFFSET -3.136600 1.374050 -0.404650
						CHANNELS 3 Zrotation Yrotation Xrotation
						JOINT RightForeArm
						{
							OFFSET -5.241900 -0.000000 -0.000000
							CHANNELS 3 Zrotation Yrotation Xrotation
							JOINT RightHand
							{
								OFFSET -3.444170 -0.000000 -0.000000
								CHANNELS 3 Zrotation Yrotation Xrotation
								JOINT RightFingerBase
								{
									OFFSET 0.000000 0.000000 0.000000
									CHANNELS 3 Zrotation Yrotation Xrotation
									JOINT RightHandIndex1
									{
										OFFSET -0.622530 -0.000000 -0.000000
										CHANNELS 3 Zrotation Yrotation Xrotation
										End Site
										{
											OFFSET 0.000000 0.000000 0.000000
										}
									}
								}
								JOINT RThumb
								{
									OFFSET 0.000000 0.000000 0.000000
									CHANNELS 3 Zrotation Yrotation Xrotation
									End Site
									{
										OFFSET 0.000000 0.000000 0.000000
									}
								}
							}
						}
					}
				}
			}
		}
	}
}
MOTION
Frames: 6
Frame Time: 0.033333
-0.072779 17.835135 -0.094393 -2.012121 -4.591369 13.086673 -12.906733 16.039766 -1.784138 -6.558715 9.892993 -12.295526 -4.967635 12.711184 -4.219660 1.189720 11.894980 -6.952231 0.000000 0.000000 0.000000 10.259626 0.799257 2.658356 -1.362150 13.940488 -17.986160 5.065821 7.286645 4.755363 0.169980 7.951428 2.855782 0.000000 0.000000 0.000000 -2.464333 -8.502359 13.770088 0.344644 -5.960051 2.581898 6.938479 -4.738058 -12.039058 -1.279078 -0.744956 3.717260 -3.544716 -0.682508 4.939204 0.000000 0.000000 0.000000 8.465869 5.490104 -20.372180 -16.927813 -30.613692 1.850510 16.461859 -25.443948 1.054301 -5.273255 -3.378126 0.529402 -5.334951 -3.389649 0.000000 0.000000 0.000000 0.000000 0.000000 0.000000 0.000000 0.256724 0.419925 6.903374 58.173969 4.575427 40.395151 -173.837610 78.508502 -175.632549 7.532347 -2.590930 2.240841 7.995412 -2.757132 0.000000 0.000000 0.000000 0.000000 0.000000 0.000000 0.000000 
-0.075936 17.826784 -0.086776 -2.038865 -4.339890 13.223229 -12.811779 16.018198 -1.765591 -6.547344 9.827175 -12.271524 -5.209572 12.555231 -4.427546 1.201361 11.826712 -7.022691 0.000000 0.000000 0.000000 10.072562 0.583736 2.578751 -1.020008 13.997984 -18.068651 4.955104 7.265149 4.794335 0.191305 8.003637 2.684424 0.000000 0.000000 0.000000 -2.306167 -8.414939 13.912754 0.672235 -5.854927 2.423398 6.464211 -4.637668 -12.203994 -1.475360 -0.724809 3.509418 -3.083704 -0.682321 5.163492 0.000000 0.000000 0.000000 8.388421 6.017762 -19.941822 -18.000153 -30.503828 2.279010 16.973799 -28.374428 1.135796 -5.336791 -3.078185 0.570683 -5.406844 -3.091082 0.000000 0.000000 0.000000 0.000000 0.000000 0.000000 0.000000 0.081786 0.030574 6.981596 58.880946 3.918067 40.772890 -173.048474 78.882615 -175.529322 7.433419 -2.765191 2.295938 7.911084 -2.946764 0.000000 0.000000 0.000000 0.000000 0.000000 0.000000 0.000000 
-0.080067 17.819479 -0.079907 -2.068694 -4.068086 13.353012 -12.737996 16.004065 -1.715721 -6.510182 9.744893 -12.275532 -5.453095 12.381628 -4.658819 1.211960 11.766353 -7.060023 0.000000 0.000000 0.000000 9.909483 0.379242 2.491774 -0.677344 14.046077 -18.142438 4.815425 7.227921 4.857996 0.213109 8.052725 2.506297 0.000000 0.000000 0.000000 -2.156469 -8.316708 14.030711 0.921790 -5.743017 2.271699 6.057942 -4.542979 -12.349084 -1.622811 -0.710008 3.300279 -2.664105 -0.680720 5.337064 0.000000 0.000000 0.000000 8.365573 6.478440 -19.370731 -18.939529 -30.112173 2.689239 18.031792 -31.874208 1.214367 -5.793709 -2.126318 0.610361 -5.867611 -2.140448 0.000000 0.000000 0.000000 0.000000 0.000000 0.000000 0.000000 -0.134032 -0.352460 6.935825 59.645667 3.352158 41.328267 -171.736613 79.519408 -175.427489 7.327762 -2.984994 2.350131 7.815727 -3.184512 0.000000 0.000000 0.000000 0.000000 0.000000 0.000000 0.000000 
-0.085282 17.813312 -0.073516 -2.100541 -3.763667 13.483323 -12.680363 15.979218 -1.632348 -6.421998 9.656008 -12.291565 -5.762419 12.180531 -4.943505 1.224112 11.725963 -7.053656 0.000000 0.000000 0.000000 9.794491 0.196441 2.410884 -0.375797 14.072522 -18.216966 4.655477 7.175651 4.919830 0.235726 8.088958 2.321501 0.000000 0.000000 0.000000 -2.034564 -8.222413 14.120661 1.084475 -5.646439 2.049529 5.745351 -4.491471 -12.409260 -1.675805 -0.701106 3.146942 -2.308933 -0.678335 5.489070 0.000000 0.000000 0.000000 8.342979 6.770046 -18.793042 -19.489182 -29.472649 3.015284 19.458161 -35.599340 1.285566 -6.295151 -1.036934 0.646257 -6.371072 -1.053193 0.000000 0.000000 0.000000 0.000000 0.000000 0.000000 0.000000 -0.368184 -0.630516 6.855016 60.457738 2.860802 41.848686 -170.195977 80.312640 -175.356004 7.170099 -3.185883 2.388504 7.663489 -3.402632 0.000000 0.000000 0.000000 0.000000 0.000000 0.000000 0.000000 
-0.090832 17.808512 -0.067603 -2.134029 -3.432943 13.613178 -12.655355 15.937532 -1.515371 -6.260287 9.557052 -12.343365 -6.138382 11.974119 -5.238895 1.239830 11.702221 -7.024496 0.000000 0.000000 0.000000 9.730786 0.039170 2.331400 -0.120652 14.080105 -18.301310 4.474647 7.098663 5.008961 0.260164 8.117779 2.121515 0.000000 0.000000 0.000000 -1.924616 -8.136124 14.183682 1.179136 -5.568364 1.751527 5.490802 -4.475800 -12.434416 -1.673084 -0.691391 3.079630 -2.026662 -0.674633 5.599630 0.000000 0.000000 0.000000 8.318340 6.949951 -18.265451 -19.679042 -28.605989 3.217168 21.493657 -39.489193 1.354653 -6.564025 -0.385019 0.681195 -6.644579 -0.404666 0.000000 0.000000 0.000000 0.000000 0.000000 0.000000 0.000000 -0.608980 -0.823551 6.777677 61.304547 2.430672 42.252557 -168.553390 81.195680 -175.331977 6.923240 -3.337622 2.402260 7.417455 -3.568832 0.000000 0.000000 0.000000 0.000000 0.000000 0.000000 0.000000 
-0.097683 17.804626 -0.062602 -2.163938 -3.066827 13.741700 -12.631245 15.865883 -1.408262 -6.055379 9.449081 -12.419470 -6.544608 11.798562 -5.454468 1.259647 11.675105 -7.000726 0.000000 0.000000 0.000000 9.722916 -0.076164 2.239311 0.076030 14.056326 -18.386716 4.285155 6.982085 5.138234 0.285851 8.138680 1.882487 0.000000 0.000000 0.000000 -1.856111 -8.052344 14.261562 1.264658 -5.497251 1.448895 5.271428 -4.461280 -12.469847 -1.630546 -0.683033 3.082642 -1.799872 -0.670796 5.694715 0.000000 0.000000 0.000000 8.295442 7.083593 -17.764581 -19.892187 -27.530984 3.175273 24.155101 -43.779905 1.288690 -6.251556 0.280121 0.648206 -6.328880 0.257167 0.000000 0.000000 0.000000 0.000000 0.000000 0.000000 0.000000 -0.857737 -0.997543 6.695213 62.130117 2.059518 42.466197 -166.998861 82.048680 -175.355662 6.559546 -3.407823 2.391723 7.053633 -3.650631 0.000000 0.000000 0.000000 0.000000 0.000000 0.000000 0.000000 
